Coordinates
version=1
nRows=19
nColumns=36
inDegrees=yes

Units are S.I. units (second, meters, Newtons, ...)
If the header above contains a line with 'inDegrees', this indicates whether rotational values are in degrees (yes) or radians (no).

endheader
time	pelvis_tilt	pelvis_list	pelvis_rotation	pelvis_tx	pelvis_ty	pelvis_tz	hip_flexion_r	hip_adduction_r	hip_rotation_r	knee_angle_r	knee_angle_r_beta	ankle_angle_r	subtalar_angle_r	mtp_angle_r	hip_flexion_l	hip_adduction_l	hip_rotation_l	knee_angle_l	knee_angle_l_beta	ankle_angle_l	subtalar_angle_l	mtp_angle_l	lumbar_extension	lumbar_bending	lumbar_rotation	arm_flex_r	arm_add_r	arm_rot_r	elbow_flex_r	pro_sup_r	arm_flex_l	arm_add_l	arm_rot_l	elbow_flex_l	pro_sup_l
      2.43333330	    -19.78122319	      0.33657907	     -2.79452701	      0.58228489	      0.72826938	      0.12461739	     62.59689235	    -17.96622023	     -6.08645142	     72.14350740	      1.25914174	     25.89928887	    -15.46696924	     -7.49999987	     61.53622532	    -24.32845945	    -11.41152475	     69.52350467	      1.21341406	     25.61417317	     -2.68236318	     -7.49999987	    -21.10263115	     -2.93978571	     -2.39600382	     74.14908957	     12.06319461	     69.01337525	    127.11368420	     96.03542507	     67.06951740	     11.50841401	     75.67193468	    123.86684819	     90.07528773
      2.45000000	    -19.89009122	      0.39184456	     -2.65962911	      0.58458674	      0.71772850	      0.12777250	     63.76435966	    -18.01254559	     -5.43541687	     74.12208863	      1.29367450	     27.26697429	    -15.17014746	     -7.49999987	     63.03700130	    -24.87909688	    -10.83440558	     71.84971974	      1.25401418	     25.68390360	     -2.85055748	     -7.49999987	    -22.22761121	     -3.13363006	     -2.41461837	     74.73389864	     12.31478082	     69.14587228	    127.23789772	     93.38418963	     68.55488396	     11.13239498	     75.24998094	    123.95100946	     87.69194427
      2.46666670	    -20.09031279	      0.56997461	     -2.53696667	      0.58139054	      0.70379662	      0.12865852	     65.57413040	    -18.22620608	     -4.44628010	     76.78530016	      1.34015630	     28.86529692	    -14.66686550	     -7.49999987	     65.14348679	    -25.33040457	    -10.07192576	     74.87058452	      1.30673821	     26.11384937	     -2.96985702	     -7.49999987	    -23.07386476	     -3.33721568	     -2.51784344	     75.88947339	     12.62406425	     68.88610488	    127.16283674	     94.59103295	     70.17502450	     10.98991509	     75.30778260	    124.40167574	     88.83563718
      2.48333330	    -20.41006544	      0.78170146	     -2.66463402	      0.58422760	      0.69942051	      0.13161206	     66.82816318	    -18.08382451	     -3.52756781	     78.56716970	      1.37125580	     30.34260484	    -13.45911579	     -7.49999987	     66.66155580	    -25.95434877	     -9.54989807	     76.90004663	      1.34215901	     26.14913899	     -2.79842233	     -7.49999987	    -23.84807370	     -3.66258353	     -2.62426231	     76.65744216	     13.09162576	     69.12631918	    126.66669545	     96.24825166	     70.90539111	     10.11952412	     75.50468757	    125.29765928	     90.60411010
      2.50000000	    -20.51397128	      0.91233261	     -2.66230788	      0.58511997	      0.69301526	      0.13137557	     67.93743775	    -17.97303411	     -2.73079725	     80.40428819	      1.40331956	     31.18534227	    -13.81875325	     -7.49999987	     67.97565049	    -26.40600675	     -9.07273438	     78.83020129	      1.37584656	     26.25993884	     -2.86141746	     -7.49999987	    -24.80748238	     -3.84485063	     -2.62702577	     77.29544934	     13.33262721	     69.18921969	    126.39984576	     95.94400775	     72.05924020	     10.14801061	     75.23352811	    125.07650777	     90.28299894
      2.51666670	    -20.47600103	      1.08852297	     -2.65656755	      0.58714202	      0.68422350	      0.12857879	     68.94637913	    -18.18617154	     -1.84108814	     82.24774989	      1.43549404	     32.38538410	    -12.91201361	     -7.49999987	     68.87904929	    -26.76519886	     -8.79686837	     80.50509962	      1.40507905	     26.84403561	     -2.09782209	     -7.49999987	    -25.86076103	     -3.93788327	     -2.86116717	     77.74574741	     13.43131066	     70.05505232	    125.95652232	     96.76953762	     72.58621478	      9.99868008	     75.96463258	    124.51691096	     91.03066388
      2.53333330	    -20.43217481	      1.34700247	     -2.57755421	      0.58665703	      0.67103325	      0.12795440	     70.39193967	    -18.71412120	     -1.03836901	     84.57760580	      1.47615769	     33.02358196	    -12.53343139	     -7.49999987	     69.84162189	    -26.93010223	     -8.52046575	     82.25659393	      1.43564840	     27.91724648	     -1.38003528	     -7.49999987	    -26.62264013	     -4.05109492	     -3.07203298	     77.94930267	     13.32085735	     69.71029749	    126.15611175	    100.99646932	     73.24469683	     10.17921043	     75.30960112	    124.10196952	     94.61359507
      2.55000000	    -20.42567922	      1.58293768	     -2.44370404	      0.58410716	      0.66036949	      0.12844430	     72.32254317	    -19.31702499	     -0.20389118	     87.09367302	      1.52007135	     33.28616432	    -12.79750901	     -7.49999987	     71.23764543	    -27.01909148	     -8.12917635	     84.14011768	      1.46852209	     28.93023495	     -0.86077830	     -7.49999987	    -27.39620239	     -4.07769925	     -3.09139890	     78.74302493	     13.20580191	     69.53267489	    126.22896424	    100.97320404	     74.11186905	     10.19179897	     75.15554577	    123.78543597	     94.62574415
      2.56666670	    -20.76635330	      1.65359811	     -2.25850311	      0.57671658	      0.65142737	      0.13627778	     74.25146222	    -19.40632429	      0.23643442	     89.10286930	      1.55513844	     33.65900960	    -12.74837381	     -7.49999987	     73.15522857	    -27.28873914	     -7.35309240	     85.90070141	      1.49925007	     29.20511650	     -0.12688057	     -7.49999987	    -28.11877758	     -4.38428612	     -2.87024441	     79.97053344	     13.37849183	     69.13196698	    126.14081766	    100.92026382	     75.32785750	     10.46807649	     75.00981504	    123.67351592	     94.64977552
      2.58333330	    -21.20032897	      1.70173616	     -1.97496879	      0.57546379	      0.63662477	      0.13014054	     76.28837295	    -19.79737472	      0.84565226	     91.29951042	      1.59347706	     34.16852419	    -12.46644106	     -7.49999987	     75.49838767	    -27.60455167	     -6.63227439	     88.12139139	      1.53800842	     28.84512085	     -0.28612302	     -7.49999987	    -28.46161327	     -4.06813388	     -2.69442284	     81.36933229	     13.24071622	     68.55862854	    126.40189182	     98.02160588	     76.84212299	     10.59931060	     75.06112876	    123.65795252	     92.39061662
      2.60000000	    -21.85466052	      1.77004008	     -1.69499187	      0.58346054	      0.62982682	      0.12647624	     78.00246349	    -20.36446280	      1.59255168	     92.82927689	      1.62017652	     35.11598437	    -11.11218594	     -7.49999987	     77.36831783	    -27.64144632	     -6.08103202	     89.86855507	      1.56850218	     29.03499209	      0.00065947	     -7.49999987	    -28.46195303	     -3.75569079	     -2.62083593	     81.70279474	     13.01045837	     69.07552443	    126.66440300	     98.21873773	     77.32011264	     10.78840372	     76.10170776	    123.77431510	     92.71343615
      2.61666670	    -22.28618236	      1.89566929	     -1.62575122	      0.58109515	      0.62086956	      0.12669772	     79.65061149	    -20.63788738	      2.38420592	     94.37234305	      1.64710811	     36.00083346	    -10.56441669	     -7.49999987	     78.99386332	    -27.69018548	     -5.53833748	     91.42489083	      1.59566536	     29.34338050	      0.18683773	     -7.49999987	    -28.81574690	     -3.58789554	     -2.45602816	     82.59542356	     12.96743109	     69.52218812	    126.79893378	     96.29542252	     78.05817815	     10.85521350	     76.75279143	    123.90753111	     91.30442782
      2.63333330	    -22.73711799	      1.97362119	     -1.61437939	      0.57813277	      0.61239515	      0.12753155	     81.42165605	    -20.73018638	      3.06588574	     95.93148037	      1.67432019	     36.61270522	    -10.18008780	     -7.49999987	     80.89222342	    -27.67554625	     -4.82584723	     93.08910210	      1.62471133	     30.00940011	      0.77060069	     -7.49999987	    -29.33904963	     -3.43759073	     -2.40438168	     83.60356736	     12.57904679	     70.26537773	    127.14385977	     95.67096279	     79.02451933	     10.91722349	     77.86937621	    124.33984702	     90.93395931
      2.65000000	    -22.99811037	      2.16291304	     -1.54408738	      0.58022469	      0.60107769	      0.12496403	     83.17508594	    -21.07152658	      3.98487904	     97.83078140	      1.70746925	     36.82410120	    -10.57613800	     -7.49999987	     82.55826181	    -27.60875324	     -4.14521628	     94.82605849	      1.65502694	     30.87003845	      1.11996778	     -7.49999987	    -29.77178216	     -3.20419773	     -2.62236419	     84.43945679	     12.53595134	     70.49762246	    127.04024196	     95.80764547	     80.07667797	     11.04127986	     77.69378206	    123.83106829	     91.04396469
      2.66666670	    -23.53667917	      2.12116347	     -1.56809013	      0.57969851	      0.58615884	      0.12529601	     85.38443153	    -21.26106480	      4.65822165	    100.01983095	      1.74567537	     36.90588787	    -10.87562391	     -7.49999987	     85.08731261	    -27.84232618	     -2.99213929	     97.10708551	      1.69483837	     31.81543577	      2.15968132	     -7.49999987	    -29.77367432	     -2.95720695	     -2.63894255	     85.37487138	     12.51352342	     71.45983128	    127.13605404	     95.32251661	     80.88420720	     11.13424852	     77.96872287	    123.31389883	     90.97061970
      2.68333330	    -23.95845353	      2.12300654	     -1.42237887	      0.56754431	      0.57878009	      0.13213050	     87.74683807	    -21.08469700	      5.22451886	    101.94216982	      1.77922651	     36.67706981	    -11.35178514	     -7.49999987	     87.54606317	    -27.68462447	     -1.73207018	     98.75651787	      1.72362639	     32.09669127	      2.70549712	     -7.49999987	    -30.47716473	     -3.14749263	     -2.75941910	     86.80234635	     12.32352631	     70.77644876	    126.89218589	     95.36726684	     82.94247365	     10.78389507	     77.03615416	    123.00034666	     90.97211560
      2.70000000	    -24.54413165	      1.70756415	     -1.54072971	      0.56871175	      0.56583467	      0.13135966	     89.68305346	    -20.59282139	      5.35170691	    103.59580889	      1.80808796	     36.84370102	    -11.58814174	     -7.49999987	     90.45015949	    -27.85893670	      0.33997557	    100.67348729	      1.75708382	     32.17998917	      3.36392575	     -7.49999987	    -30.76043729	     -2.80638226	     -2.42140140	     87.77004248	     12.46672255	     70.50393580	    126.53408119	     95.29140208	     83.87756228	     10.63198029	     76.62634198	    123.13589556	     90.86759510
      2.71666670	    -25.15672769	      1.49574906	     -1.44560424	      0.55664679	      0.55012906	      0.13117992	     92.20713134	    -20.34384663	      5.78800797	    105.30359842	      1.83789451	     36.77636204	    -11.59474475	     -7.49999987	     93.89607645	    -27.59207834	      2.15600287	    102.88723866	      1.79572107	     31.92444076	      3.13508970	     -7.49999987	    -31.11003167	     -2.75336907	     -2.54038070	     89.68413394	     12.47821254	     69.00730198	    126.34346965	     93.43984209	     86.41292722	     10.33178747	     75.15617933	    123.30309450	     89.17902203
      2.73333330	    -25.76563171	      1.16438277	     -1.60061380	      0.55161133	      0.53852548	      0.12888051	     94.85004912	    -20.07523387	      6.12674068	    106.94143761	      1.86648019	     36.58091361	    -11.23100187	     -7.49999987	     97.19265438	    -27.34610731	      3.96750580	    104.88737485	      1.83063003	     32.02053920	      3.09859348	     -7.49999987	    -31.38550248	     -2.42392838	     -2.28132697	     90.96345309	     12.17991862	     66.32187648	    126.25209358	     93.45928755	     87.93486175	     10.01152281	     73.29980512	    123.60991681	     88.36409392
